<svg width="32" height="32" viewBox="0 0 36 36" fill="none" xmlns="http://www.w3.org/2000/svg">
  <rect width="36" height="36" rx="8" fill="#D11C8A"/>
  <path d="M18 5C11.5 5 7 9.8 7 15.5c0 2.8 1.1 5.3 3.2 7C8 24.2 7 27 7 30" stroke="white" stroke-width="2.6" stroke-linecap="round"/>
  <path d="M18 5C24.5 5 29 9.8 29 15.5c0 2.8-1.1 5.3-3.2 7C28 24.2 29 27 29 30" stroke="white" stroke-width="2.6" stroke-linecap="round"/>
  <path d="M10.8 22.5C13.5 21 15.7 20 18 20s4.5 1 7.2 2.5" stroke="white" stroke-width="2.3" stroke-linecap="round"/>
  <circle cx="18" cy="16" r="3.8" fill="white" opacity=".9"/>
</svg>
